<svg width="80" height="80" viewBox="0 0 80 80" fill="none" xmlns="http://www.w3.org/2000/svg">
<path d="M13.0491 6.74718C12.6193 6.90345 12.3328 7.30716 11.6166 8.73968L10.8612 10.2503L9.12919 10.4848C7.56644 10.7061 7.34506 10.7713 7.03251 11.0968C6.39437 11.7219 6.51159 11.9954 8.02224 13.5451L9.38966 14.9256L9.07711 16.6576C8.73851 18.5199 8.76456 18.8454 9.29849 19.2101C9.78034 19.5488 10.132 19.4576 11.7729 18.6111L13.3356 17.7906L14.9114 18.6111C15.7839 19.0538 16.6695 19.4184 16.8648 19.4184C17.3337 19.4184 17.8675 18.8846 17.8675 18.4288C17.8675 18.2334 17.7503 17.3739 17.6072 16.5144L17.3337 14.9516L18.649 13.6233C19.808 12.4382 19.9512 12.2428 19.9512 11.8391C19.9512 10.9666 19.6778 10.8103 17.6592 10.4978L15.849 10.2243L15.0677 8.70061C14.6379 7.86715 14.1951 7.0988 14.0909 6.99461C13.8565 6.77323 13.3226 6.643 13.0491 6.74718ZM14.4035 12.1126C14.5077 12.2038 15.0156 12.347 15.5235 12.4252C16.0183 12.5033 16.4351 12.5945 16.4351 12.6466C16.4351 12.6987 16.2006 12.92 15.9141 13.1545C15.1067 13.8056 14.9374 14.2223 15.1197 15.1991C15.1979 15.6418 15.263 16.0586 15.263 16.1367C15.263 16.2148 14.8723 16.0716 14.4035 15.8242C13.9347 15.5767 13.4658 15.3814 13.3616 15.3814C13.2575 15.3814 12.7756 15.5767 12.2807 15.8242L11.3952 16.28L11.4994 15.733C11.5515 15.4335 11.6036 14.9256 11.6166 14.6C11.6166 14.053 11.5645 13.9489 10.9654 13.3628C10.6138 13.0112 10.3143 12.6856 10.3143 12.6335C10.3143 12.5814 10.6529 12.5033 11.0566 12.4512C12.1766 12.308 12.45 12.1256 12.9189 11.1229L13.3356 10.2373L13.7654 11.0968C13.9998 11.5657 14.2863 12.0215 14.4035 12.1126Z" fill="#F2C688"/>
<path d="M30.1662 6.90338C29.3458 7.28104 29.0072 7.84103 29.0072 8.86984C29.0072 9.87261 29.3197 10.4196 30.1142 10.8233C32.2368 11.9042 34.3597 9.24751 32.8098 7.47639C32.0805 6.65594 31.156 6.44758 30.1662 6.90338Z" fill="#F2C688"/>
<path d="M61.478 7.03372C61.1263 7.38533 61.1003 7.48952 61.1003 8.34903C61.1003 9.15645 61.1393 9.31273 61.4258 9.58622C61.9077 10.0811 62.5718 10.0681 63.0277 9.57318C63.2752 9.2997 63.3142 9.10437 63.3142 8.30997C63.3012 7.33325 63.197 7.07278 62.702 6.81233C62.2463 6.5649 61.8817 6.63 61.478 7.03372Z" fill="#F2C688"/>
<path d="M58.1337 10.3415C57.7692 10.7322 57.743 11.5006 58.0947 11.8522C58.4072 12.1647 59.1105 12.308 59.9048 12.2168C60.9858 12.0996 61.4807 11.0578 60.7773 10.3676C60.5038 10.0811 60.3477 10.042 59.436 10.042C58.5375 10.042 58.3812 10.0811 58.1337 10.3415Z" fill="#F2C688"/>
<path d="M63.703 10.3023C63.1562 10.8493 63.2863 11.7479 63.9635 12.0865C64.4063 12.3079 65.5913 12.2948 66.0342 12.0604C66.5552 11.8 66.7765 11.2009 66.5682 10.693C66.3467 10.1461 66.0863 10.0419 64.9533 10.0419C64.1458 10.0419 63.9115 10.094 63.703 10.3023Z" fill="#F2C688"/>
<path d="M61.65 12.347C61.1682 12.5424 60.9077 14.2484 61.2593 14.8995C61.624 15.5898 62.4575 15.733 62.9913 15.186C63.2778 14.9126 63.317 14.7563 63.317 13.8838C63.317 13.0112 63.2778 12.8549 62.9913 12.5815C62.6918 12.2689 62.0928 12.1647 61.65 12.347Z" fill="#F2C688"/>
<path d="M31.8658 13.597C31.41 13.9877 31.397 14.2091 31.8007 16.3578C32.2045 18.5588 32.3087 22.8563 32.0092 25.1483C31.5533 28.5863 30.9542 30.6961 29.3133 34.6811C28.6752 36.2308 28.1543 37.6503 28.1543 37.8456C28.1543 38.6401 29.3915 39.148 29.9515 38.588C30.1858 38.3536 30.798 36.9861 32.0222 33.9388C33.1552 31.1388 33.9625 27.8441 34.2882 24.7836C34.4835 22.9215 34.3662 18.2591 34.0928 16.5532C33.663 13.8184 33.5067 13.4798 32.6993 13.3495C32.3347 13.2844 32.1653 13.3365 31.8658 13.597Z" fill="#F2C688"/>
<path d="M40.028 15.7587C37.9183 16.488 37.124 19.0925 38.4783 20.8767C39.403 22.0878 41.135 22.5047 42.5415 21.8403C44.1172 21.1112 44.8465 19.2098 44.1693 17.621C43.7917 16.7355 42.9582 15.9801 42.0727 15.7196C41.2002 15.4592 40.8875 15.4592 40.028 15.7587ZM41.9293 18.194C42.5545 18.8972 42.0597 19.939 41.109 19.939C40.2103 19.939 39.7025 18.9883 40.2103 18.2722C40.6402 17.647 41.4085 17.621 41.9293 18.194Z" fill="#F2C688"/>
<path d="M48.1055 19.197C47.832 19.4965 47.819 19.5876 47.819 22.7523V26.021L48.1577 26.3335L48.4962 26.6461H51.6608H54.8253L55.164 26.3335L55.5025 26.021V22.7391C55.5025 19.4835 55.5025 19.4575 55.203 19.184C54.9035 18.9105 54.8123 18.8975 51.6478 18.8975C48.405 18.8975 48.379 18.8975 48.1055 19.197ZM53.2887 22.7391V24.3671H51.6608H50.0328V22.7391V21.1113H51.6608H53.2887V22.7391Z" fill="#F2C688"/>
<path d="M66.2045 22.3486C65.6967 22.5701 65.5273 22.9738 65.5273 23.9896C65.5273 24.6928 65.5663 24.8231 65.905 25.1616C66.3998 25.6435 66.9728 25.6695 67.4157 25.2138C67.7022 24.9403 67.7412 24.784 67.7412 23.8723C67.7412 22.9738 67.7022 22.8175 67.4547 22.5831C67.038 22.2055 66.6993 22.1403 66.2045 22.3486Z" fill="#F2C688"/>
<path d="M21.3402 22.544C20.689 22.7132 19.6993 23.2212 19.2825 23.6119C17.4593 25.3049 17.4333 28.313 19.1915 32.4414C21.5355 37.963 27.5782 45.4382 33.686 50.3739C37.085 53.1219 41.3173 55.7394 43.8828 56.664C44.4168 56.8594 44.6512 57.0027 44.534 57.0677C44.4428 57.1199 42.7238 57.784 40.7183 58.5524C37.9965 59.5812 36.9807 59.9197 36.6942 59.8677C36.1733 59.7635 33.0478 58.2399 31.7455 57.4454C24.2703 52.9395 18.8788 45.1779 17.212 36.5045C16.9255 35.0329 16.7562 34.7204 16.1701 34.5902C15.4538 34.4339 14.8808 34.9549 14.8678 35.7492C14.8548 37.1165 16.2352 41.8179 17.4073 44.4225C20.4547 51.2073 25.9893 57.0677 32.5008 60.4015L33.9203 61.1179L27.435 63.5792L20.9495 66.0275L20.1552 65.3112C17.85 63.2405 16.2482 60.636 15.4408 57.6407C15.1413 56.5207 14.946 54.9058 14.5943 50.5432C14.5162 49.5014 14.3599 48.4987 14.2687 48.3034C13.9432 47.6652 12.9274 47.626 12.4716 48.2382L12.2111 48.6028L12.5107 52.2102C12.9274 57.3542 13.292 58.969 14.5552 61.5215C15.4799 63.3839 16.2613 64.4647 17.7458 65.9883L18.6445 66.9L14.0734 68.632C11.56 69.5827 9.48933 70.338 9.45027 70.312C9.42422 70.273 9.78887 68.7102 10.2447 66.8089C10.7135 64.9205 11.0651 63.2405 11.0261 63.0714C10.8307 62.2509 9.65863 61.9514 9.16377 62.5895C8.99447 62.7979 8.53867 64.4127 7.84845 67.2517C6.48105 72.8255 6.53313 72.4478 7.028 72.9427C7.2494 73.151 7.5359 73.3334 7.66613 73.3334C7.88752 73.3334 10.7526 72.2655 24.4397 67.0824C25.729 66.6005 32.0842 64.2044 38.5695 61.756C45.055 59.3077 50.6027 57.1849 50.9153 57.0287C51.6055 56.69 52.3217 55.9087 52.6733 55.1143C53.077 54.2157 53.1422 52.132 52.7905 50.6735C52.3348 48.7722 52.0222 48.0688 51.5143 47.8605C51.0325 47.6652 50.759 47.7172 50.3292 48.108C49.9385 48.4595 49.9515 48.9154 50.3683 50.2177C50.8372 51.6242 50.9413 53.6557 50.5897 54.3068C50.2772 54.9188 49.8343 55.2055 49.0008 55.3617C46.6958 55.7915 42.3852 53.9682 37.4365 50.452C30.8208 45.7639 23.8537 37.6897 21.236 31.66C20.5978 30.1884 20.077 28.235 20.077 27.3233C20.077 25.4872 21.0797 24.5755 22.9942 24.6537C23.9057 24.6927 24.3745 24.328 24.3745 23.5859C24.3745 22.8174 23.9448 22.5179 22.7857 22.4659C22.2648 22.4397 21.6137 22.4788 21.3402 22.544Z" fill="#F2C688"/>
<path d="M62.0007 24.224C61.4147 24.823 61.4928 25.1877 62.3783 26.0862C63.2768 26.9718 63.6415 27.05 64.2407 26.4638C64.7615 25.93 64.7355 25.4612 64.1495 24.784C63.303 23.7812 62.6127 23.6118 62.0007 24.224Z" fill="#F2C688"/>
<path d="M69.4663 24.5495C68.8412 25.1615 68.737 25.3179 68.737 25.7345C68.737 26.1122 68.8282 26.2945 69.1017 26.529C69.6877 27.0499 70.1565 26.9457 70.9638 26.1514C71.55 25.5522 71.6542 25.37 71.6542 24.9662C71.6542 24.3412 71.1853 23.8462 70.6123 23.8462C70.2867 23.8462 70.0393 24.0025 69.4663 24.5495Z" fill="#F2C688"/>
<path d="M44.8782 28.0396C44.3312 28.4692 34.1473 37.6114 33.7305 38.0541C33.4832 38.3146 33.3658 38.5751 33.3658 38.8616C33.3658 39.6169 34.1993 40.1899 34.8375 39.9034C35.124 39.7732 45.7767 30.2664 46.3628 29.6282C46.7665 29.1726 46.7405 28.5996 46.2717 28.1307C45.8158 27.6749 45.386 27.6487 44.8782 28.0396Z" fill="#F2C688"/>
<path d="M64.8147 28.0005C59.9962 30.2273 41.686 39.0438 41.4777 39.2522C40.8135 39.8643 41.2823 41.0363 42.1938 41.0363C42.4413 41.0363 43.5222 40.5937 44.9157 39.9295C46.1918 39.3303 51.4272 36.843 56.5452 34.4077C61.6632 31.9725 66.0258 29.8367 66.2472 29.6673C66.7682 29.2507 66.7812 28.5083 66.2602 28.0655C65.8305 27.6878 65.5048 27.6748 64.8147 28.0005Z" fill="#F2C688"/>
<path d="M70.407 28.0657C69.899 28.4955 69.899 29.2247 70.407 29.6545C70.7065 29.928 70.9018 29.967 71.7223 29.967C72.6338 29.967 72.699 29.941 73.0115 29.5633C73.4543 29.0423 73.4413 28.5997 72.9725 28.1308C72.6208 27.7792 72.5167 27.7532 71.6702 27.7532C70.9018 27.7532 70.7065 27.8052 70.407 28.0657Z" fill="#F2C688"/>
<path d="M69.3005 31.074C68.8837 31.2953 68.6233 31.9335 68.7795 32.3502C68.8447 32.5065 69.1833 32.9102 69.548 33.2618C70.3293 33.978 70.8242 34.0692 71.332 33.5483C71.827 33.0665 71.7748 32.4413 71.1758 31.7772C70.694 31.2563 70.121 30.8787 69.8083 30.8787C69.7172 30.8917 69.4828 30.9698 69.3005 31.074Z" fill="#F2C688"/>
<path d="M66.1807 32.3501C65.6858 32.5976 65.5165 33.0534 65.5555 34.0431C65.6077 35.0329 65.829 35.3714 66.5192 35.5147C66.8318 35.5667 67.001 35.5147 67.3267 35.2412C67.7303 34.9026 67.7433 34.8636 67.7433 33.8999C67.7303 32.8581 67.6392 32.5976 67.1313 32.3371C66.7797 32.1417 66.5843 32.1417 66.1807 32.3501Z" fill="#F2C688"/>
<path d="M47.6902 43.3285C46.3488 43.4197 43.7182 43.7843 41.5695 44.149C39.1993 44.5657 38.9648 44.6958 38.9648 45.5555C38.9648 46.0763 39.4467 46.6363 39.8895 46.6363C40.0457 46.6363 41.0225 46.493 42.0773 46.3108C45.828 45.6857 47.1432 45.5555 49.839 45.5555C53.7458 45.5555 56.702 46.0243 60.4657 47.2353C62.3932 47.8605 62.6927 47.8605 63.1093 47.2615C63.4088 46.8317 63.3698 46.2847 63.0052 45.92C62.328 45.2558 57.0797 43.8625 53.9022 43.5108C52.4827 43.3675 48.7972 43.2503 47.6902 43.3285Z" fill="#F2C688"/>
<path d="M66.7408 46.8185C63.8107 47.7822 63.7327 51.9755 66.6237 53.0825C67.34 53.356 68.6292 53.3038 69.2673 52.9783C70.179 52.4965 70.9343 51.4155 71.0775 50.3737C71.2598 49.0975 70.4393 47.6128 69.2543 47.0008C68.6032 46.6622 67.4572 46.584 66.7408 46.8185ZM68.4468 49.1365C68.9678 49.5923 69.0068 50.1523 68.5902 50.6472C68.1473 51.1812 67.4962 51.2202 67.0273 50.7383C66.0507 49.7747 67.4312 48.238 68.4468 49.1365Z" fill="#F2C688"/>
<path d="M57.0137 54.854C56.3105 55.6745 56.7532 56.4298 58.1077 56.7423C60.9597 57.3934 63.6815 58.8649 65.5177 60.7403L66.0777 61.3263L65.3875 61.5346C63.8377 61.9775 62.249 63.2668 61.5197 64.6601C61.2072 65.2463 61.168 65.4676 61.168 66.5616C61.168 68.0331 61.4545 68.7365 62.4052 69.6871C63.3298 70.6246 64.0592 70.9113 65.4657 70.9243C66.4683 70.9243 66.7418 70.8721 67.367 70.5856C68.7865 69.9214 69.659 68.6843 70.0107 66.8611L70.1798 65.9755L70.5575 66.757C70.9092 67.4731 70.9352 67.6555 70.9352 68.9708C70.9352 70.2601 70.8962 70.4814 70.5837 71.1716C70.3752 71.5884 70.219 72.0963 70.219 72.2786C70.219 72.7085 70.6227 73.1641 71.0915 73.2814C72.1985 73.5679 73.2142 71.4711 73.2142 68.9448C73.2142 67.6035 72.9798 66.5876 72.3938 65.4025C71.964 64.517 70.7138 63.0715 70.0627 62.6808C69.8543 62.5635 69.3465 62.0035 68.9557 61.4305C66.6247 58.1096 63.1475 55.7005 59.2667 54.7238C57.756 54.3461 57.4305 54.3591 57.0137 54.854ZM67.406 63.9569C67.7967 64.4388 67.927 64.9988 67.8488 66.0796C67.7447 67.8248 66.7548 68.8666 65.3353 68.7494C63.6293 68.6061 62.7568 66.835 63.6945 65.3635C64.3195 64.3868 65.6218 63.5793 66.5985 63.5663C66.9632 63.5663 67.1455 63.6574 67.406 63.9569Z" fill="#F2C688"/>
</svg>
