<svg width="99" height="80" viewBox="0 0 99 80" fill="none" xmlns="http://www.w3.org/2000/svg">
<path d="M19.2226 24.0625H56.1299C58.577 24.0625 60.9239 24.8527 62.6543 26.2592C64.3846 27.6657 65.3567 29.5733 65.3567 31.5625V54.0625C65.3567 54.5598 65.1137 55.0367 64.6811 55.3883C64.2485 55.74 63.6618 55.9375 63.05 55.9375H26.1427C23.6955 55.9375 21.3486 55.1473 19.6183 53.7408C17.888 52.3343 16.9158 50.4267 16.9158 48.4375V25.9375C16.9158 25.4402 17.1589 24.9633 17.5915 24.6117C18.0241 24.26 18.6108 24.0625 19.2226 24.0625Z" stroke="#ECC790" stroke-width="1.5" stroke-linecap="round" stroke-linejoin="round"/>
<path d="M65.3567 36.25L81.5037 28.75V51.25L65.3567 43.75" stroke="#ECC790" stroke-width="1.5" stroke-linecap="round" stroke-linejoin="round"/>
</svg>
