<svg width="45" height="45" viewBox="0 0 45 45" fill="none" xmlns="http://www.w3.org/2000/svg">
<path d="M41.5233 5.89675C40.8483 5.32435 39.7881 5.24245 38.6919 5.68255H38.6901C37.5372 6.14515 6.05521 19.6487 4.77361 20.2004C4.54051 20.2814 2.50471 21.041 2.71441 22.733C2.90161 24.2585 4.53781 24.8903 4.73761 24.9632L12.7413 27.7037C13.2723 29.4713 15.2298 35.9928 15.6627 37.386C15.9327 38.2545 16.3728 39.3956 17.1441 39.6306C17.8209 39.8915 18.4941 39.653 18.9297 39.3111L23.823 34.7724L31.7223 40.9328L31.9104 41.0453C32.4468 41.2829 32.9607 41.4017 33.4512 41.4017C33.8301 41.4017 34.1937 41.3307 34.5411 41.1884C35.7246 40.7024 36.198 39.5747 36.2475 39.4469L42.1479 8.77765C42.5079 7.13965 42.0075 6.30625 41.5233 5.89675ZM19.8 28.7999L17.1 35.9999L14.4 26.9999L35.1 11.6999L19.8 28.7999Z" fill="white"/>
</svg>
