<svg width="44" height="37" viewBox="0 0 29 37" fill="none" xmlns="http://www.w3.org/2000/svg">
<path d="M8.85173 0.0447474C8.7732 0.0736542 8.18273 0.397405 7.54281 0.761623C6.90289 1.12873 6.07099 1.6028 5.69577 1.81381C4.82024 2.30811 4.67771 2.44686 4.58463 2.89491C4.51773 3.20131 4.541 3.25334 5.37872 4.67264C6.7749 7.04295 9.63709 11.7633 9.75635 11.8992C9.91342 12.0697 10.1403 12.2056 10.3759 12.2663C10.7046 12.3472 10.7162 12.3444 12.2666 11.4598C13.0287 11.0233 13.8751 10.5406 14.1514 10.3874C14.8379 10.0001 15.0182 9.79772 15.0968 9.31787C15.1579 8.94498 15.1317 8.88139 14.483 7.81186C11.4434 2.81397 9.96287 0.394513 9.88724 0.304904C9.6749 0.0534201 9.1746 -0.0737677 8.85173 0.0447474Z" fill="#C8CACC"/>
<path d="M3.46478 3.92397C1.92315 4.36334 0.870195 5.47623 0.355351 7.21639C-0.473636 10.0116 0.163375 14.414 2.10349 19.3021C4.06688 24.2451 7.03669 28.9394 10.277 32.2203C13.0519 35.0271 15.6989 36.5736 18.3487 36.9378C18.7181 36.9898 19.8264 36.9898 20.1667 36.9407C20.8008 36.8453 21.3651 36.695 21.9236 36.4753C22.1737 36.3741 22.4384 36.2556 22.4733 36.2267C22.4878 36.2151 19.9369 31.8012 19.6373 31.3271C19.3319 30.8415 18.7327 29.8702 17.8048 28.3498C17.3103 27.5433 17.3976 27.6069 16.9525 27.7167C16.5802 27.8063 15.8065 27.815 15.3673 27.7312C14.4045 27.5548 13.2992 27.0056 12.3131 26.2194C11.9088 25.8985 11.1584 25.1701 10.7802 24.7365C10.2072 24.0774 9.62546 23.2738 9.14261 22.4673C8.84883 21.9759 8.70339 21.6869 8.50851 21.1955C8.01984 19.964 7.71734 18.828 7.56899 17.6689C7.49627 17.0965 7.50209 16.108 7.58354 15.5819C7.7377 14.5615 8.10129 13.7116 8.68013 13.0092C8.76739 12.9051 8.83138 12.8126 8.82556 12.8011C8.81974 12.7924 8.66267 12.5265 8.47651 12.2114C7.98785 11.3847 7.2723 10.0955 6.10299 7.94194C4.6719 5.29991 3.84582 3.83725 3.79056 3.84014C3.77601 3.84014 3.62767 3.87772 3.46478 3.92397Z" fill="#C8CACC"/>
<path d="M22.3628 23.4473C22.3075 23.4704 21.6734 23.823 20.952 24.2364C20.2336 24.6498 19.4017 25.1209 19.105 25.2857C18.5261 25.6123 18.3254 25.7742 18.2091 26.0112C18.0607 26.3148 18.0695 26.6327 18.2295 26.916C20.2685 30.5119 23.1132 35.3769 23.2732 35.5416C23.3255 35.5937 23.4506 35.6804 23.5553 35.7295C23.7269 35.8133 23.7677 35.822 24.0207 35.822H24.3L24.7625 35.5561C25.0184 35.4115 25.8823 34.9201 26.6822 34.4663C27.4821 34.0096 28.1715 33.602 28.218 33.5587C28.3373 33.4488 28.4391 33.284 28.5031 33.0962C28.5671 32.914 28.5787 32.5209 28.5234 32.3648C28.506 32.3099 28.2326 31.8301 27.9184 31.2982C27.6014 30.7663 26.7462 29.3094 26.0132 28.0607C24.1051 24.8087 23.5292 23.8404 23.4332 23.719C23.3808 23.6525 23.2732 23.5744 23.1539 23.5166C22.9881 23.4357 22.927 23.4212 22.7118 23.4155C22.5576 23.4097 22.4267 23.4241 22.3628 23.4473Z" fill="#C8CACC"/>
</svg>
