<svg width="78" height="45" viewBox="0 0 78 45" fill="none" xmlns="http://www.w3.org/2000/svg">
<g clip-path="url(#clip0_116_166)">
<path fill-rule="evenodd" clip-rule="evenodd" d="M66.3634 28.2863C68.9214 30.8321 71.621 33.2274 73.9151 36.0299C74.9285 37.2754 75.8877 38.5605 76.6218 40.006C77.6616 42.0605 76.7199 44.3215 74.9128 44.4442L63.6792 44.4391C60.7818 44.684 58.4708 43.4951 56.5271 41.4755C54.972 39.8607 53.5317 38.1417 52.0361 36.4722C51.4231 35.7898 50.7812 35.1476 50.0146 34.64C48.4811 33.6253 47.15 33.9361 46.2735 35.5667C45.3812 37.225 45.1787 39.0613 45.091 40.9098C44.9708 43.6063 44.171 44.3154 41.5141 44.4388C35.8354 44.7117 30.4462 43.8361 25.4398 40.9156C21.0259 38.341 17.6032 34.7066 14.6241 30.5919C8.82366 22.5798 4.38168 13.7758 0.389427 4.72522C-0.5092 2.68611 0.147987 1.59152 2.35491 1.55278C6.01959 1.4802 9.68378 1.48537 13.3528 1.54761C14.8422 1.56982 15.8282 2.44074 16.4033 3.87524C18.386 8.8453 20.8121 13.5739 23.8574 17.9569C24.6683 19.1238 25.4953 20.2907 26.6728 21.112C27.9755 22.0214 28.9674 21.72 29.5802 20.2406C29.9691 19.3025 30.1394 18.2921 30.227 17.2874C30.5174 13.8309 30.5556 10.3802 30.0464 6.93585C29.7338 4.78617 28.5461 3.39457 26.442 2.98778C25.3683 2.78038 25.5282 2.37308 26.0481 1.74829C26.951 0.670754 27.8002 0 29.4931 0H42.1888C44.1874 0.402142 44.6313 1.31748 44.9049 3.3677L44.9158 17.7443C44.8939 18.538 45.3047 20.8933 46.7068 21.4186C47.8292 21.7926 48.5688 20.8772 49.2422 20.1517C52.282 16.8628 54.4516 12.976 56.3895 8.95121C57.2496 7.18145 57.9893 5.34356 58.706 3.50717C59.237 2.14449 60.0702 1.474 61.5758 1.5037L73.7945 1.51481C74.1568 1.51481 74.5235 1.52023 74.8745 1.58144C76.9333 1.93916 77.4977 2.84211 76.8616 4.89182C75.8597 8.10765 73.9102 10.7876 72.0039 13.4799C69.9663 16.3543 67.787 19.1302 65.7662 22.0217C63.9096 24.6621 64.0572 25.993 66.3634 28.2863Z" fill="#F3F3FA"/>
</g>
<defs>
<clipPath id="clip0_116_166">
<rect width="77.1429" height="45" fill="white"/>
</clipPath>
</defs>
</svg>
