<svg width="80" height="80" viewBox="0 0 80 80" fill="none" xmlns="http://www.w3.org/2000/svg">
<path d="M38.0462 6.7099C36.991 6.8532 34.985 7.29615 34.0472 7.60882C32.7185 8.06479 30.7257 9.0679 29.4752 9.9147C28.1335 10.8266 25.5023 13.4713 24.6425 14.774C23.3008 16.8193 22.311 19.1643 21.803 21.5223C21.4773 23.0336 21.4773 27.3588 21.803 28.87C22.389 31.6058 23.1837 33.3385 25.5283 37.0383C26.4662 38.5365 27.2217 39.8131 27.2087 39.8783C27.1827 39.9435 24.7988 41.3243 21.8942 42.9658L16.6186 45.9361L11.6428 59.016C8.90733 66.2071 6.6669 72.226 6.6669 72.3953C6.65387 72.7731 7.20095 73.3333 7.5787 73.3333C7.73502 73.3333 8.25605 73.1248 8.72498 72.8513C10.6658 71.783 23.0273 64.8133 23.4052 64.5918L23.8088 64.3443L31.7677 68.8388C36.1573 71.3139 39.8567 73.3333 40 73.3333C40.1433 73.3333 43.8165 71.327 48.1672 68.8778C52.5048 66.4286 56.126 64.4355 56.2042 64.4355C56.2823 64.4355 59.8643 66.4156 64.163 68.8518C68.4615 71.2749 72.1347 73.2811 72.3302 73.3073C72.76 73.3723 73.3462 72.8383 73.3332 72.3953C73.3332 72.226 71.0927 66.2071 68.3573 59.016L63.3813 45.9361L58.106 42.9528C55.2012 41.3243 52.8175 39.9305 52.7913 39.8783C52.7783 39.8131 53.5338 38.5365 54.4717 37.0383C56.8163 33.3385 57.611 31.6058 58.1972 28.87C58.5227 27.3588 58.5227 23.0336 58.1972 21.5223C57.7022 19.2035 56.673 16.7803 55.3575 14.774C54.4067 13.354 51.8405 10.8006 50.3555 9.81049C48.2845 8.42955 46.07 7.50459 43.7123 7.00954C42.5662 6.76202 39.0752 6.57964 38.0462 6.7099ZM43.517 8.96369C49.2875 10.2795 53.8855 14.4223 55.7482 19.9981C56.3083 21.6526 56.5428 23.203 56.5428 25.1961C56.5428 27.919 56.0478 30.1596 54.9277 32.4265C54.3285 33.6511 41.1983 54.5605 40.6773 55.1336C40.3127 55.5115 39.8177 55.5896 39.466 55.3161C39.1793 55.0946 25.7367 33.7683 25.1245 32.5568C24.0173 30.3811 23.4572 27.906 23.4572 25.1961C23.4572 21.7308 24.356 18.7605 26.2838 15.8423C27.1695 14.5004 29.397 12.3118 30.8558 11.3608C32.8618 10.045 35.493 9.04185 37.8247 8.71617C39.0882 8.53377 42.2405 8.67709 43.517 8.96369ZM26.4532 46.1055C26.0233 48.1248 25.6717 49.8705 25.6717 49.9748C25.6717 50.2743 26.2838 50.7955 26.6355 50.7955C26.8178 50.7955 27.1045 50.6651 27.2868 50.4958C27.5603 50.2483 27.7037 49.7533 28.3548 46.5875C28.7717 44.6073 29.1495 42.979 29.1885 42.979C29.2277 42.979 31.1945 46.0403 33.5522 49.7793C37.3558 55.8111 37.8898 56.6058 38.3978 56.9055L38.945 57.2441L38.958 63.9273V70.6105L38.5412 70.3891C38.1373 70.1806 24.9812 62.7809 24.9422 62.7288C24.9292 62.7288 25.359 60.6575 25.893 58.1561C26.7658 54.0525 26.857 53.5573 26.6877 53.2708C26.4272 52.8018 25.9842 52.6193 25.5283 52.7756C25.3198 52.8538 25.0985 53.0101 25.0333 53.1275C24.9682 53.2446 24.4993 55.3291 23.9782 57.7653C23.4702 60.2015 23.0273 62.2858 22.9883 62.4031C22.9362 62.5984 9.68888 70.1676 9.5977 70.0633C9.57165 70.0373 11.4995 64.9045 13.8702 58.6641L18.1817 47.3041L22.6757 44.7636C25.1505 43.3696 27.1827 42.2755 27.2087 42.3275C27.2217 42.3666 26.883 44.0731 26.4532 46.1055ZM57.5848 44.92L61.8183 47.3041L66.1298 58.6511C68.5005 64.9045 70.4283 70.0373 70.4023 70.0503C70.3893 70.0765 67.3803 68.4088 63.72 66.3504C58.8093 63.5886 57.0378 62.5333 56.9987 62.338C56.7773 61.4391 52.7653 42.4186 52.7653 42.3015C52.7653 42.2233 52.8825 42.2363 53.065 42.3536C53.2212 42.4578 55.2533 43.6041 57.5848 44.92ZM52.9477 52.7105C54.081 58.078 55.0318 62.5203 55.0708 62.5855C55.097 62.6896 41.8237 70.311 41.1463 70.5714C41.0942 70.5975 41.042 67.6141 41.042 63.9273L41.0552 57.2441L41.6022 56.9055C42.1102 56.6058 42.6443 55.8111 46.4478 49.7793C48.8055 46.0403 50.7593 42.979 50.8115 42.979C50.8505 42.979 51.8145 47.3561 52.9477 52.7105Z" fill="#F2C688"/>
<path d="M38.2815 14.5786C36.4708 14.9043 34.7123 15.699 33.2795 16.8455C31.3387 18.3958 29.8928 20.7668 29.463 23.0988C29.2805 24.1018 29.2805 26.2905 29.463 27.2936C29.7625 28.9221 30.6873 30.7981 31.8988 32.2571C33.0712 33.6511 35.4027 35.0841 37.3957 35.6313C38.6983 35.9961 41.4337 35.957 42.7753 35.5791C47.5688 34.2113 50.682 30.1206 50.682 25.1961C50.682 20.2978 47.5558 16.181 42.8405 14.8392C41.7723 14.5265 39.2975 14.3832 38.2815 14.5786ZM42.5408 16.7933C44.7683 17.4838 46.8133 19.2035 47.7903 21.2228C48.5197 22.6948 48.7282 23.6068 48.7282 25.1961C48.7282 26.7855 48.5197 27.6975 47.7903 29.1696C47.3735 30.0425 47.0348 30.4985 46.2012 31.3321C44.3515 33.1691 42.5538 33.9246 40.0008 33.9246C37.4478 33.9246 35.6502 33.1691 33.8005 31.3321C32.0682 29.5995 31.2735 27.6715 31.2735 25.1961C31.2735 23.6198 31.495 22.6948 32.1983 21.2488C33.0842 19.425 34.9208 17.7313 36.7183 17.054C38.607 16.3374 40.7563 16.2332 42.5408 16.7933Z" fill="#F2C688"/>
<path d="M38.4102 18.5652C36.1437 19.1124 34.1638 20.9494 33.4865 23.151C33.1347 24.2844 33.1347 26.1082 33.4865 27.2417C34.1768 29.4694 36.1437 31.2932 38.4623 31.8404C41.875 32.6482 45.4832 30.5897 46.5123 27.2417C46.864 26.1082 46.864 24.2844 46.5123 23.151C45.4832 19.7899 41.836 17.7315 38.4102 18.5652ZM41.4452 20.5715C43.5293 21.2229 44.8188 22.9947 44.8188 25.1964C44.8188 27.398 43.5293 29.1697 41.4452 29.8212C40.4032 30.1469 39.5955 30.1469 38.5535 29.8212C37.0555 29.3522 35.9873 28.336 35.4273 26.8379C35.0365 25.7955 35.1147 24.0499 35.6097 23.0989C36.261 21.8092 37.2248 20.9884 38.5535 20.5585C39.5173 20.2459 40.4422 20.2589 41.4452 20.5715Z" fill="#F2C688"/>
</svg>
