<svg width="90" height="80" viewBox="0 0 90 80" fill="none" xmlns="http://www.w3.org/2000/svg">
<path d="M56.163 48.8216H35.5069C35.3124 48.8216 35.1553 48.6791 35.1553 48.5025V41.0225C35.1553 39.9351 34.452 38.9413 33.3621 38.488C33.2049 38.422 33.123 38.2646 33.1699 38.1135C33.3714 37.4453 33.5942 36.7558 33.8332 36.0621C33.8801 35.9281 34.0161 35.8386 34.1685 35.8386H57.4993C57.6538 35.8386 57.7898 35.9301 57.8344 36.0621C58.0734 36.7536 58.2984 37.4453 58.5002 38.1135C58.5446 38.2646 58.4625 38.422 58.3078 38.488C57.2203 38.9391 56.517 39.9351 56.517 41.0225V48.5025C56.5146 48.6791 56.3576 48.8216 56.163 48.8216ZM35.8586 48.1831H55.8114V41.0225C55.8114 39.7776 56.5616 38.6326 57.7453 38.0326C57.5884 37.522 57.4194 37.0006 57.2413 36.4771H34.4286C34.2504 37.0026 34.0817 37.522 33.9248 38.0326C35.1107 38.6326 35.8609 39.7796 35.8609 41.0225V48.1831H35.8586Z" fill="#ECC790" stroke="#ECC790"/>
<path d="M57.4982 36.4773H34.1676C33.9729 36.4773 33.816 36.3346 33.816 36.1581C33.816 36.1368 33.8182 36.1133 33.8227 36.09C33.8511 35.9388 33.9964 35.824 34.1698 35.824H57.4957C57.6647 35.824 57.8053 35.9303 57.8406 36.075C57.8475 36.1006 57.8499 36.1283 57.8499 36.1518V36.1581C57.8499 36.3346 57.6926 36.4773 57.4982 36.4773Z" fill="#ECC790" stroke="#ECC790"/>
<path d="M57.5079 36.4775C57.5008 36.4775 57.4939 36.4775 57.4869 36.4775C57.4657 36.4755 57.447 36.4732 57.4258 36.469H34.2568C34.2381 36.4732 34.2171 36.4755 34.1961 36.4775C34.0039 36.486 33.8466 36.3647 33.8256 36.1965C33.2934 32.0895 33.4436 28.1038 34.299 23.6585C34.3296 23.4945 34.4936 23.3795 34.6764 23.3945C34.6905 23.3945 34.7023 23.3967 34.7164 23.3987H56.964C56.9758 23.3967 56.9899 23.3945 57.0039 23.3945C57.1867 23.3795 57.3486 23.4945 57.3814 23.6585C58.2369 28.0995 58.3869 32.0852 57.8548 36.1965C57.8361 36.3562 57.6862 36.4775 57.5079 36.4775ZM34.4912 35.8305H57.1961C57.6651 31.9662 57.522 28.2038 56.7439 24.0372H34.9438C34.1655 28.208 34.02 31.9725 34.4912 35.8305Z" fill="#ECC790" stroke="#ECC790"/>
<path d="M57.0296 24.0385H34.6459C34.4865 24.0385 34.353 23.9428 34.3084 23.8108C34.2968 23.7788 34.2921 23.747 34.2921 23.7128C34.2921 23.6875 34.2968 23.6598 34.3014 23.6341C34.3367 23.4916 34.4771 23.3851 34.6436 23.3851H57.0274C57.1963 23.3851 57.3368 23.4916 57.3698 23.6341C57.3767 23.6598 57.3791 23.6851 57.3791 23.7128C57.3791 23.7448 57.372 23.7788 57.3626 23.8108C57.3251 23.9428 57.1892 24.0385 57.0296 24.0385Z" fill="#ECC790" stroke="#ECC790"/>
<path d="M57.5092 36.4876H34.1784C33.984 36.4876 33.8269 36.3449 33.8269 36.1684C33.8269 36.1471 33.8293 36.1236 33.834 36.1002C33.8619 35.9491 34.0074 35.8342 34.1809 35.8342H57.507C57.6757 35.8342 57.8162 35.9406 57.8514 36.0854C57.8586 36.1109 57.8608 36.1386 57.8608 36.1621V36.1684C57.8608 36.3449 57.7037 36.4876 57.5092 36.4876Z" fill="#ECC790" stroke="#ECC790"/>
<path d="M57.03 24.0278C57.0019 24.0278 56.9762 24.0257 56.9503 24.0193H34.7235C34.6697 24.03 34.6134 24.03 34.5594 24.0193C34.4377 23.9917 34.3393 23.9065 34.3063 23.798C33.1907 20.2847 32.7336 16.4202 32.9867 12.6217C33.0499 11.6705 33.7297 10.9214 34.6815 10.7597C38.6124 10.0873 42.7099 10 45.8394 10C49.2032 10 53.1598 10.0894 56.9972 10.7597C57.9489 10.9257 58.6123 11.6556 58.6873 12.6196C58.9569 16.0967 58.5021 19.9612 57.3697 23.7915C57.3371 23.9023 57.2409 23.9895 57.1166 24.0172C57.0885 24.0257 57.0606 24.0278 57.03 24.0278ZM34.9063 23.3808H56.7628C57.8224 19.6973 58.2442 15.9967 57.9864 12.6643C57.9347 11.9982 57.4941 11.496 56.8637 11.3875C53.0848 10.7278 49.1702 10.6405 45.837 10.6405C42.7382 10.6405 38.6827 10.7256 34.8105 11.3875C34.1728 11.4981 33.732 11.9982 33.6876 12.6621C33.4461 16.2989 33.8657 19.9995 34.9063 23.3808Z" fill="#ECC790" stroke="#ECC790"/>
<path d="M57.0296 24.0385H34.6459C34.4865 24.0385 34.3528 23.9428 34.3084 23.8108C34.2968 23.7788 34.2921 23.747 34.2921 23.7128C34.2921 23.6875 34.2968 23.6598 34.3014 23.6341C34.3367 23.4916 34.4771 23.3851 34.6436 23.3851H57.0274C57.1961 23.3851 57.3368 23.4916 57.3696 23.6341C57.3765 23.6598 57.3789 23.6851 57.3789 23.7128C57.3789 23.7448 57.3718 23.7788 57.3624 23.8108C57.3251 23.9428 57.189 24.0385 57.0296 24.0385Z" fill="#ECC790" stroke="#ECC790"/>
<path d="M56.1677 60.8974H35.5116C35.3171 60.8974 35.16 60.7547 35.16 60.5781V57.6032C35.16 57.4266 35.3171 57.2841 35.5116 57.2841H56.1677C56.3623 57.2841 56.5193 57.4266 56.5193 57.6032V60.5781C56.5193 60.7547 56.3623 60.8974 56.1677 60.8974ZM35.8631 60.2589H55.8161V57.9224H35.8631V60.2589Z" fill="#ECC790" stroke="#ECC790"/>
<path d="M34.7282 69.9998H29.262C28.6361 69.9998 28.125 69.5359 28.125 68.9678V53.0544C28.125 52.8778 28.2819 52.7351 28.4766 52.7351H31.6249C31.8193 52.7351 31.9764 52.8778 31.9764 53.0544V54.1164C31.9764 54.7549 32.1849 55.3719 32.5811 55.8996C33.2327 56.7701 34.311 57.2869 35.4692 57.2869H35.5136C35.7081 57.2869 35.8652 57.4296 35.8652 57.6063V68.9678C35.8652 69.5359 35.3565 69.9998 34.7282 69.9998ZM28.8281 53.3738V68.9678C28.8281 69.1848 29.0227 69.3614 29.262 69.3614H34.7282C34.9674 69.3614 35.1621 69.1848 35.1621 68.9678V57.9148C33.8891 57.8296 32.7242 57.2233 31.9999 56.2571C31.524 55.6229 31.2731 54.8824 31.2731 54.1164V53.3738H28.8281Z" fill="#ECC790" stroke="#ECC790"/>
<path d="M31.6249 53.3739H28.4766C28.2819 53.3739 28.125 53.2312 28.125 53.0545V41.025C28.125 39.1352 29.8174 37.5989 31.899 37.5989H32.0912C32.6421 37.5989 33.1695 37.7032 33.6617 37.9117C35.0002 38.467 35.8652 39.6885 35.8652 41.025V48.5049C35.8652 48.6815 35.7081 48.824 35.5136 48.824H34.1329C32.9445 48.824 31.9764 49.703 31.9764 50.784V53.0545C31.9764 53.2312 31.8193 53.3739 31.6249 53.3739ZM28.8281 52.7354H31.2731V50.784C31.2731 49.3519 32.5554 48.1857 34.1329 48.1857H35.1621V41.025C35.1621 39.9375 34.4587 38.9439 33.3688 38.4905C32.9679 38.3224 32.5389 38.2372 32.0912 38.2372H31.899C30.2066 38.2372 28.8281 39.4885 28.8281 41.025V52.7354Z" fill="#ECC790" stroke="#ECC790"/>
<path d="M62.4248 69.9998H56.9561C56.3301 69.9998 55.8216 69.5359 55.8216 68.9678V57.6063C55.8216 57.4296 55.9785 57.2869 56.1731 57.2869H56.2178C58.1445 57.2869 59.7103 55.8656 59.7103 54.1164V53.0544C59.7103 52.8778 59.8674 52.7351 60.0619 52.7351H63.2078C63.4024 52.7351 63.5593 52.8778 63.5593 53.0544V68.9678C63.5593 69.5359 63.0508 69.9998 62.4248 69.9998ZM56.5247 57.9148V68.9678C56.5247 69.1848 56.7193 69.3614 56.9561 69.3614H62.4248C62.6616 69.3614 62.8562 69.1848 62.8562 68.9678V53.3738H60.4136V54.1164C60.4136 56.1231 58.6954 57.7721 56.5247 57.9148Z" fill="#ECC790" stroke="#ECC790"/>
<path d="M63.2078 53.3739H60.0619C59.8674 53.3739 59.7103 53.2312 59.7103 53.0545V50.784C59.7103 49.703 58.7423 48.824 57.5514 48.824H56.1731C55.9785 48.824 55.8216 48.6815 55.8216 48.5049V41.025C55.8216 39.6885 56.6865 38.467 58.0249 37.9117C58.5148 37.7054 59.0445 37.5989 59.5954 37.5989H59.7853C61.8669 37.5989 63.5593 39.1352 63.5593 41.025V53.0545C63.5593 53.2312 63.4024 53.3739 63.2078 53.3739ZM60.4136 52.7354H62.8562V41.025C62.8562 39.4885 61.4777 38.2372 59.7853 38.2372H59.5954C59.1454 38.2372 58.7166 38.3224 58.3179 38.4905C57.228 38.9439 56.5247 39.9375 56.5247 41.025V48.1857H57.5514C59.1289 48.1857 60.4136 49.3519 60.4136 50.784V52.7354Z" fill="#ECC790" stroke="#ECC790"/>
<path d="M56.2157 57.9295H35.4703C34.0804 57.9295 32.7818 57.306 32.001 56.2612C31.5251 55.627 31.2744 54.8865 31.2744 54.1205V50.788C31.2744 49.3559 32.5566 48.1897 34.1344 48.1897H57.5494C59.1268 48.1897 60.4116 49.3559 60.4116 50.788V54.1205C60.4116 56.2209 58.5293 57.9295 56.2157 57.9295ZM34.1344 48.8282C32.9458 48.8282 31.9778 49.707 31.9778 50.788V54.1205C31.9778 54.7589 32.1863 55.376 32.5824 55.9037C33.234 56.774 34.3125 57.2912 35.4703 57.2912H56.2157C58.1424 57.2912 59.7083 55.8697 59.7083 54.1205V50.788C59.7083 49.707 58.7402 48.8282 57.5494 48.8282H34.1344Z" fill="#ECC790" stroke="#ECC790"/>
</svg>
