<svg width="48" height="45" viewBox="0 0 48 45" fill="none" xmlns="http://www.w3.org/2000/svg">
<path fill-rule="evenodd" clip-rule="evenodd" d="M15.4731 0.131888C17.8171 0.0239796 18.5644 0 24.5354 0C30.5063 0 31.2536 0.0259779 33.5957 0.131888C35.9378 0.237798 37.5364 0.611481 38.9351 1.15302C40.4 1.70655 41.7288 2.57182 42.8278 3.69087C43.9468 4.78795 44.8102 6.11481 45.3616 7.58157C45.9053 8.98038 46.277 10.579 46.3847 12.917C46.4927 15.265 46.5168 16.0124 46.5168 21.9813C46.5168 27.9521 46.4908 28.6997 46.3847 31.0436C46.2788 33.3818 45.9053 34.9804 45.3616 36.3791C44.8102 37.8461 43.9454 39.1751 42.8278 40.2739C41.7288 41.3928 40.4 42.2561 38.9351 42.8077C37.5364 43.3511 35.9378 43.7228 33.5997 43.8308C31.2536 43.9388 30.5063 43.9626 24.5354 43.9626C18.5644 43.9626 17.8171 43.9367 15.4731 43.8308C13.135 43.7249 11.5364 43.3511 10.1376 42.8077C8.67067 42.2561 7.34158 41.3913 6.24289 40.2739C5.12459 39.1762 4.25919 37.8476 3.70704 36.3812C3.1655 34.9822 2.7938 33.3836 2.68591 31.0458C2.578 28.6976 2.55402 27.9503 2.55402 21.9813C2.55402 16.0104 2.57999 15.263 2.68591 12.921C2.79182 10.579 3.1655 8.98038 3.70704 7.58157C4.26001 6.11497 5.12607 4.78657 6.24488 3.68886C7.34203 2.57082 8.66977 1.70544 10.1356 1.15302C11.5344 0.611481 13.135 0.239797 15.4731 0.131888ZM33.4178 4.08854C31.0998 3.98263 30.4044 3.96064 24.5354 3.96064C18.6663 3.96064 17.9709 3.98263 15.6529 4.08854C13.5087 4.18646 12.3457 4.54415 11.5704 4.84589C10.5452 5.24554 9.81184 5.71916 9.0425 6.4885C8.31321 7.19799 7.75196 8.06172 7.3999 9.01636C7.09816 9.79168 6.74046 10.9547 6.64255 13.0989C6.53664 15.4169 6.51464 16.1123 6.51464 21.9813C6.51464 27.8502 6.53664 28.5459 6.64255 30.8639C6.74046 33.008 7.09816 34.1709 7.3999 34.9465C7.75161 35.8994 8.31313 36.7647 9.0425 37.4741C9.75191 38.2037 10.6172 38.7651 11.5704 39.1169C12.3457 39.4184 13.5087 39.7763 15.6529 39.8742C17.9709 39.9801 18.6644 40.0021 24.5354 40.0021C30.4063 40.0021 31.0998 39.9801 33.4178 39.8742C35.5619 39.7763 36.725 39.4184 37.5004 39.1169C38.5256 38.7172 39.2588 38.2436 40.0283 37.4741C40.7576 36.7647 41.319 35.8994 41.6708 34.9465C41.9726 34.1709 42.3302 33.008 42.4281 30.8639C42.534 28.5459 42.556 27.8502 42.556 21.9813C42.556 16.1123 42.534 15.4169 42.4281 13.0989C42.3302 10.9547 41.9726 9.79168 41.6708 9.01636C41.2711 7.99121 40.7976 7.25784 40.0283 6.4885C39.3186 5.75926 38.4549 5.198 37.5004 4.84589C36.725 4.54415 35.5619 4.18646 33.4178 4.08854ZM21.7277 28.7576C23.2957 29.4104 25.0417 29.4983 26.6673 29.0067C28.2931 28.5152 29.6976 27.4746 30.6413 26.0624C31.585 24.6502 32.009 22.9543 31.8412 21.2642C31.6734 19.5741 30.924 17.9947 29.7209 16.7957C28.9541 16.0293 28.0268 15.4425 27.0058 15.0775C25.985 14.7125 24.8959 14.5784 23.817 14.6848C22.738 14.7912 21.6961 15.1355 20.7662 15.6929C19.8363 16.2504 19.0415 17.0071 18.4391 17.9085C17.8368 18.8099 17.4418 19.8337 17.2826 20.9062C17.1233 21.9786 17.2039 23.073 17.5184 24.1106C17.8329 25.1481 18.3735 26.1031 19.1014 26.9066C19.8293 27.7102 20.7263 28.3423 21.7277 28.7576ZM16.5461 13.9921C17.5953 12.943 18.8408 12.1107 20.2116 11.5429C21.5824 10.9751 23.0516 10.6829 24.5354 10.6829C26.0191 10.6829 27.4884 10.9751 28.859 11.5429C30.23 12.1107 31.4754 12.943 32.5247 13.9921C33.5737 15.0413 34.406 16.2868 34.9738 17.6576C35.5415 19.0284 35.8338 20.4976 35.8338 21.9813C35.8338 23.4651 35.5415 24.9343 34.9738 26.3051C34.406 27.6758 33.5737 28.9215 32.5247 29.9705C30.4057 32.0895 27.5318 33.2799 24.5354 33.2799C21.5388 33.2799 18.665 32.0895 16.5461 29.9705C14.4273 27.8516 13.2369 24.9779 13.2369 21.9813C13.2369 18.9848 14.4273 16.111 16.5461 13.9921ZM38.3398 12.3655C38.5997 12.1202 38.8078 11.8253 38.9518 11.4982C39.0958 11.1711 39.1725 10.8183 39.1778 10.461C39.1831 10.1036 39.1164 9.74883 38.9822 9.41763C38.8477 9.08643 38.6481 8.78556 38.3956 8.53285C38.1428 8.28011 37.8418 8.08065 37.5107 7.94628C37.1796 7.81192 36.8248 7.74537 36.4675 7.75059C36.1099 7.7558 35.7573 7.83265 35.4301 7.97662C35.1029 8.12059 34.808 8.32873 34.5629 8.5887C34.0859 9.09434 33.8247 9.76595 33.835 10.461C33.845 11.156 34.1256 11.8197 34.6172 12.3112C35.1088 12.8027 35.7724 13.0834 36.4675 13.0935C37.1623 13.1036 37.8339 12.8425 38.3398 12.3655Z" fill="#F3F3FA"/>
</svg>
